name analog
datacolumns 19
datarows 41
range 0.5255 0.5455
endheader
time	ground_force_vx	ground_force_vy	ground_force_vz	ground_force_px	ground_force_py	ground_force_pz	l_ground_force_vx	l_ground_force_vy	l_ground_force_vz	l_ground_force_px	l_ground_force_py	l_ground_force_pz	ground_torque_x	ground_torque_y	ground_torque_z	l_ground_torque_x	l_ground_torque_y	l_ground_torque_z
0.5255	-0.0	-0.0	-0.0	-0.0	-0.0	-0.0	-24.39340591430664	9.00676155090332	-797.1131591796875	-0.0	-0.0	-0.0	-0.0	-0.0	-0.0	231923.65625	25032.466796875	-8766.1826171875
0.526	-0.0	-0.0	-0.0	-0.0	-0.0	-0.0	-24.48222923278809	8.653586387634277	-797.8165283203125	-0.0	-0.0	-0.0	-0.0	-0.0	-0.0	232273.640625	25085.408203125	-8736.6591796875
0.5265	-0.0	-0.0	-0.0	-0.0	-0.0	-0.0	-23.953746795654297	7.94712495803833	-799.550048828125	-0.0	-0.0	-0.0	-0.0	-0.0	-0.0	232576.03125	25228.15625	-8677.12109375
0.527	-0.0	-0.0	-0.0	-0.0	-0.0	-0.0	-23.50894546508789	7.065149784088135	-800.6046142578125	-0.0	-0.0	-0.0	-0.0	-0.0	-0.0	232757.578125	24789.666015625	-8587.63671875
0.5275	-0.0	-0.0	-0.0	-0.0	-0.0	-0.0	-23.328737258911133	6.798579692840576	-800.2662963867188	-0.0	-0.0	-0.0	-0.0	-0.0	-0.0	232705.234375	24972.28125	-8439.63671875
0.528	-0.0	-0.0	-0.0	-0.0	-0.0	-0.0	-23.32888603210449	6.004854202270508	-800.2655639648438	-0.0	-0.0	-0.0	-0.0	-0.0	-0.0	232684.625	24858.091796875	-8321.51171875
0.5285	-0.0	-0.0	-0.0	-0.0	-0.0	-0.0	-23.244165420532227	5.740426540374756	-800.9423828125	-0.0	-0.0	-0.0	-0.0	-0.0	-0.0	232367.4375	24919.849609375	-8380.8193359375
0.529	-0.0	-0.0	-0.0	-0.0	-0.0	-0.0	-23.86275291442871	4.945568561553955	-799.544921875	-0.0	-0.0	-0.0	-0.0	-0.0	-0.0	231618.265625	24827.5078125	-8499.181640625
0.5295	-0.0	-0.0	-0.0	-0.0	-0.0	-0.0	-24.04103279113769	4.679824352264404	-794.321533203125	-0.0	-0.0	-0.0	-0.0	-0.0	-0.0	230902.21875	24759.30078125	-8292.7255859375
0.53	-0.0	-0.0	-0.0	-0.0	-0.0	-0.0	-24.1281852722168	3.532867431640625	-793.6231079101562	-0.0	-0.0	-0.0	-0.0	-0.0	-0.0	230109.3125	24811.453125	-8262.2255859375
0.5305	-0.0	-0.0	-0.0	-0.0	-0.0	-0.0	-23.15213394165039	2.7372848987579346	-796.0548095703125	-0.0	-0.0	-0.0	-0.0	-0.0	-0.0	229825.421875	24691.828125	-7698.52587890625
0.531	-0.0	-0.0	-0.0	-0.0	-0.0	-0.0	-21.822237014770508	1.50330650806427	-795.36376953125	-0.0	-0.0	-0.0	-0.0	-0.0	-0.0	230024.15625	24589.712890625	-7312.388671875
0.5315	-0.0	-0.0	-0.0	-0.0	-0.0	-0.0	-21.20103645324707	1.5028637647628784	-797.107666015625	-0.0	-0.0	-0.0	-0.0	-0.0	-0.0	230026.265625	24102.736328125	-6985.55859375
0.532	-0.0	-0.0	-0.0	-0.0	-0.0	-0.0	-20.58017349243164	2.0301902294158936	-794.6680908203125	-0.0	-0.0	-0.0	-0.0	-0.0	-0.0	229467.46875	24019.576171875	-6569.8740234375
0.5325	-0.0	-0.0	-0.0	-0.0	-0.0	-0.0	-19.959516525268555	2.295750617980957	-793.6248168945312	-0.0	-0.0	-0.0	-0.0	-0.0	-0.0	229318.78125	23647.255859375	-6510.17431640625
0.533	-0.0	-0.0	-0.0	-0.0	-0.0	-0.0	-20.04930877685547	2.2072067260742188	-792.9207153320312	-0.0	-0.0	-0.0	-0.0	-0.0	-0.0	228860.71875	23757.78125	-6450.9072265625
0.5335	-0.0	-0.0	-0.0	-0.0	-0.0	-0.0	-19.87205696105957	2.20804214477539	-790.4819946289062	-0.0	-0.0	-0.0	-0.0	-0.0	-0.0	228331.1875	23650.4375	-6539.8486328125
0.534	-0.0	-0.0	-0.0	-0.0	-0.0	-0.0	-20.402761459350582	2.561124324798584	-792.2266235351562	-0.0	-0.0	-0.0	-0.0	-0.0	-0.0	228445.0625	23563.48046875	-6480.68896484375
0.5345	-0.0	-0.0	-0.0	-0.0	-0.0	-0.0	-19.516307830810547	2.9146807193756104	-793.6226196289062	-0.0	-0.0	-0.0	-0.0	-0.0	-0.0	228954.65625	23263.7578125	-6242.5439453125
0.535	-0.0	-0.0	-0.0	-0.0	-0.0	-0.0	-18.45184326171875	3.621230125427246	-796.7640380859375	-0.0	-0.0	-0.0	-0.0	-0.0	-0.0	229577.90625	22683.7265625	-6004.3251953125
0.5355	-0.0	-0.0	-0.0	-0.0	-0.0	-0.0	-16.766326904296875	4.769349575042725	-796.4148559570312	-0.0	-0.0	-0.0	-0.0	-0.0	-0.0	230174.4375	22427.720703125	-5557.890625
0.536	-0.0	-0.0	-0.0	-0.0	-0.0	-0.0	-15.524489402770996	5.6524529457092285	-798.510009765625	-0.0	-0.0	-0.0	-0.0	-0.0	-0.0	230655.171875	21973.404296875	-5408.44921875
0.5365	-0.0	-0.0	-0.0	-0.0	-0.0	-0.0	-14.992429733276367	6.093768119812012	-802.6981201171875	-0.0	-0.0	-0.0	-0.0	-0.0	-0.0	230634.15625	21771.21484375	-5259.546875
0.537	-0.0	-0.0	-0.0	-0.0	-0.0	-0.0	-14.814898490905762	5.299399375915527	-804.0953979492188	-0.0	-0.0	-0.0	-0.0	-0.0	-0.0	231206.90625	21723.107421875	-5141.30078125
0.5375	-0.0	-0.0	-0.0	-0.0	-0.0	-0.0	-14.282163619995115	4.681456565856934	-805.8424682617188	-0.0	-0.0	-0.0	-0.0	-0.0	-0.0	231968.125	21346.31640625	-5081.291015625
0.538	-0.0	-0.0	-0.0	-0.0	-0.0	-0.0	-13.21872615814209	4.151608467102051	-809.6813354492188	-0.0	-0.0	-0.0	-0.0	-0.0	-0.0	232858.34375	20650.591796875	-4784.47607421875
0.5385	-0.0	-0.0	-0.0	-0.0	-0.0	-0.0	-12.774755477905272	4.152522087097168	-811.0823974609375	-0.0	-0.0	-0.0	-0.0	-0.0	-0.0	233585.515625	20791.318359375	-4665.150390625
0.539	-0.0	-0.0	-0.0	-0.0	-0.0	-0.0	-13.128479957580566	4.503930568695068	-812.1286010742188	-0.0	-0.0	-0.0	-0.0	-0.0	-0.0	233962.890625	20887.0859375	-4872.6162109375
0.5395	-0.0	-0.0	-0.0	-0.0	-0.0	-0.0	-13.217906951904297	4.151119232177734	-813.5296020507812	-0.0	-0.0	-0.0	-0.0	-0.0	-0.0	233983.953125	20592.611328125	-4903.001953125
0.54	-0.0	-0.0	-0.0	-0.0	-0.0	-0.0	-14.103192329406738	3.622096300125122	-815.26904296875	-0.0	-0.0	-0.0	-0.0	-0.0	-0.0	233883.3125	20602.517578125	-5111.5283203125
0.5405	-0.0	-0.0	-0.0	-0.0	-0.0	-0.0	-14.6365966796875	2.650669813156128	-818.4046630859375	-0.0	-0.0	-0.0	-0.0	-0.0	-0.0	234202.203125	20457.99609375	-5290.16357421875
0.541	-0.0	-0.0	-0.0	-0.0	-0.0	-0.0	-15.2578763961792	2.6488964557647705	-816.6626586914062	-0.0	-0.0	-0.0	-0.0	-0.0	-0.0	233542.59375	20654.521484375	-5527.81640625
0.5415	-0.0	-0.0	-0.0	-0.0	-0.0	-0.0	-16.056652069091797	1.414751410484314	-815.614990234375	-0.0	-0.0	-0.0	-0.0	-0.0	-0.0	233278.625	20785.3828125	-5706.8251953125
0.542	-0.0	-0.0	-0.0	-0.0	-0.0	-0.0	-16.323665618896484	0.2675957083702087	-813.881103515625	-0.0	-0.0	-0.0	-0.0	-0.0	-0.0	232944.40625	20479.65234375	-5825.2509765625
0.5425	-0.0	-0.0	-0.0	-0.0	-0.0	-0.0	-16.41006088256836	-0.4406569004058838	-813.1778564453125	-0.0	-0.0	-0.0	-0.0	-0.0	-0.0	232522.015625	20705.265625	-5529.93359375
0.543	-0.0	-0.0	-0.0	-0.0	-0.0	-0.0	-15.880241394042969	-1.0598602294921875	-813.1820068359375	-0.0	-0.0	-0.0	-0.0	-0.0	-0.0	232488.421875	20329.275390625	-5410.58740234375
0.5435	-0.0	-0.0	-0.0	-0.0	-0.0	-0.0	-15.436219215393066	-1.6775715351104736	-815.609619140625	-0.0	-0.0	-0.0	-0.0	-0.0	-0.0	232524.65625	20295.609375	-5320.904296875
0.544	-0.0	-0.0	-0.0	-0.0	-0.0	-0.0	-15.256513595581056	-1.6786898374557495	-814.5729370117188	-0.0	-0.0	-0.0	-0.0	-0.0	-0.0	232458.375	20014.802734375	-5172.62548828125
0.5445	-0.0	-0.0	-0.0	-0.0	-0.0	-0.0	-15.258255004882812	-2.117299795150757	-814.9223022460938	-0.0	-0.0	-0.0	-0.0	-0.0	-0.0	232220.15625	19780.529296875	-5261.31494140625
0.545	-0.0	-0.0	-0.0	-0.0	-0.0	-0.0	-14.994704246520996	-2.1190779209136963	-813.1690063476562	-0.0	-0.0	-0.0	-0.0	-0.0	-0.0	231954.546875	19447.2421875	-5319.55517578125
0.5455	-0.0	-0.0	-0.0	-0.0	-0.0	-0.0	-14.904094696044922	-2.738651990890503	-811.7855224609375	-0.0	-0.0	-0.0	-0.0	-0.0	-0.0	231065.65625	18697.4765625	-5232.16650390625
